<svg width="24" height="24" viewBox="0 0 24 24" fill="none" xmlns="http://www.w3.org/2000/svg">
<path d="M20.6245 8.56266C20.4992 8.65986 18.2874 9.90618 18.2874 12.6775C18.2874 15.8829 21.1019 17.0169 21.1861 17.045C21.1732 17.1141 20.739 18.598 19.7022 20.11C18.7777 21.4406 17.8122 22.769 16.3434 22.769C14.8746 22.769 14.4966 21.9158 12.801 21.9158C11.1486 21.9158 10.5611 22.7971 9.21756 22.7971C7.87404 22.7971 6.9366 21.5659 5.85876 20.0539C4.61028 18.2783 3.60156 15.52 3.60156 12.9021C3.60156 8.70306 6.3318 6.4761 9.01884 6.4761C10.4466 6.4761 11.6368 7.41354 12.5332 7.41354C13.3864 7.41354 14.7169 6.41994 16.3412 6.41994C16.9568 6.41994 19.1687 6.4761 20.6245 8.56266ZM15.5701 4.64226C16.2419 3.84522 16.7171 2.7393 16.7171 1.63338C16.7171 1.48002 16.7041 1.3245 16.676 1.19922C15.5831 1.24026 14.2828 1.92714 13.4987 2.8365C12.8831 3.53634 12.3085 4.64226 12.3085 5.7633C12.3085 5.93178 12.3366 6.10026 12.3496 6.15426C12.4187 6.16722 12.531 6.18234 12.6433 6.18234C13.624 6.18234 14.8573 5.5257 15.5701 4.64226Z" fill="white"/>
</svg>
