<svg width="20" height="20" viewBox="0 0 20 20" fill="none" xmlns="http://www.w3.org/2000/svg">
<path fill-rule="evenodd" clip-rule="evenodd" d="M4.5596 5.17575C4.80564 2.70281 6.92285 1 9.36574 1H10.6328C13.0757 1 15.1929 2.70281 15.4389 5.17575L15.4393 5.17969L15.8626 9.67575C15.8627 9.67642 15.8628 9.67709 15.8628 9.67776C16.0019 11.0707 16.6033 12.477 17.553 13.4859C18.072 14.0373 18.0765 14.801 17.8751 15.3479C17.6732 15.8963 17.1551 16.5 16.3402 16.5H12.9578C12.7198 17.9189 11.4858 19 9.99928 19C8.51278 19 7.2788 17.9189 7.04076 16.5H3.65834C2.84344 16.5 2.32538 15.8963 2.12343 15.3479C1.92208 14.801 1.92659 14.0373 2.44556 13.4859C3.39529 12.477 3.99669 11.0707 4.13571 9.67767L4.5596 5.17575ZM16.3402 15C16.344 15 16.345 14.9996 16.3462 14.9991C16.3483 14.9983 16.3565 14.9948 16.3695 14.9838C16.3979 14.9597 16.4382 14.909 16.4675 14.8296C16.4965 14.7508 16.5043 14.6712 16.4963 14.6092C16.4887 14.5498 16.47 14.5239 16.4608 14.5141C15.2648 13.2436 14.5386 11.5187 14.37 9.82425L14.3696 9.82031L13.9463 5.32425C13.9462 5.3236 13.9462 5.32295 13.9461 5.3223C13.7835 3.69827 12.3881 2.5 10.6328 2.5H9.36574C7.61047 2.5 6.21498 3.69831 6.05242 5.32238C6.05236 5.323 6.0523 5.32363 6.05223 5.32425L5.62854 9.82425C5.45996 11.5187 4.73374 13.2436 3.53778 14.5141C3.52853 14.5239 3.50982 14.5498 3.50222 14.6092C3.49426 14.6712 3.50203 14.7508 3.53104 14.8296C3.5603 14.909 3.6006 14.9597 3.62909 14.9838C3.64205 14.9948 3.65011 14.9983 3.65222 14.9991C3.65347 14.9996 3.65444 15 3.65834 15H16.3402ZM8.58463 16.5C8.79055 17.0826 9.34617 17.5 9.99928 17.5C10.6524 17.5 11.208 17.0826 11.4139 16.5H8.58463Z" fill="white"/>
</svg>
