<svg width="52" height="52" viewBox="0 0 52 52" fill="none" xmlns="http://www.w3.org/2000/svg">
<g filter="url(#filter0_b_238_2944)">
<rect width="52" height="52" rx="26" fill="#242424" fill-opacity="0.58"/>
<path fill-rule="evenodd" clip-rule="evenodd" d="M22.75 17C23.1642 17 23.5 17.3358 23.5 17.75V19H28.5V17.75C28.5 17.3358 28.8358 17 29.25 17C29.6642 17 30 17.3358 30 17.75V19H32.25C33.7688 19 35 20.2312 35 21.75V32.25C35 33.7688 33.7688 35 32.25 35H19.75C18.2312 35 17 33.7688 17 32.25V21.75C17 20.2312 18.2312 19 19.75 19H22V17.75C22 17.3358 22.3358 17 22.75 17ZM22 20.5H19.75C19.0596 20.5 18.5 21.0596 18.5 21.75V24H33.5V21.75C33.5 21.0596 32.9404 20.5 32.25 20.5H30V21.25C30 21.6642 29.6642 22 29.25 22C28.8358 22 28.5 21.6642 28.5 21.25V20.5H23.5V21.25C23.5 21.6642 23.1642 22 22.75 22C22.3358 22 22 21.6642 22 21.25V20.5ZM33.5 25.5H18.5V32.25C18.5 32.9404 19.0596 33.5 19.75 33.5H32.25C32.9404 33.5 33.5 32.9404 33.5 32.25V25.5Z" fill="white"/>
</g>
<defs>
<filter id="filter0_b_238_2944" x="-4" y="-4" width="60" height="60" filterUnits="userSpaceOnUse" color-interpolation-filters="sRGB">
<feFlood flood-opacity="0" result="BackgroundImageFix"/>
<feGaussianBlur in="BackgroundImageFix" stdDeviation="2"/>
<feComposite in2="SourceAlpha" operator="in" result="effect1_backgroundBlur_238_2944"/>
<feBlend mode="normal" in="SourceGraphic" in2="effect1_backgroundBlur_238_2944" result="shape"/>
</filter>
</defs>
</svg>
