<svg width="20" height="21" viewBox="0 0 20 21" fill="none" xmlns="http://www.w3.org/2000/svg">
<path fill-rule="evenodd" clip-rule="evenodd" d="M10 5.25C9.17157 5.25 8.5 4.57843 8.5 3.75C8.5 2.92157 9.17157 2.25 10 2.25C10.8284 2.25 11.5 2.92157 11.5 3.75C11.5 4.57843 10.8284 5.25 10 5.25ZM10 12C9.17157 12 8.5 11.3284 8.5 10.5C8.5 9.67157 9.17157 9 10 9C10.8284 9 11.5 9.67157 11.5 10.5C11.5 11.3284 10.8284 12 10 12ZM8.5 17.25C8.5 18.0784 9.17157 18.75 10 18.75C10.8284 18.75 11.5 18.0784 11.5 17.25C11.5 16.4216 10.8284 15.75 10 15.75C9.17157 15.75 8.5 16.4216 8.5 17.25Z" fill="white"/>
</svg>
