<svg width="21" height="20" viewBox="0 0 21 20" fill="none" xmlns="http://www.w3.org/2000/svg">
    <path fill-rule="evenodd" clip-rule="evenodd"
        d="M10.5 2.5C6.35786 2.5 3 5.85786 3 10C3 14.1421 6.35786 17.5 10.5 17.5C14.6421 17.5 18 14.1421 18 10C18 5.85786 14.6421 2.5 10.5 2.5ZM1.5 10C1.5 5.02944 5.52944 1 10.5 1C15.4706 1 19.5 5.02944 19.5 10C19.5 14.9706 15.4706 19 10.5 19C5.52944 19 1.5 14.9706 1.5 10ZM15.2803 5.21967C15.4768 5.41611 15.5485 5.70504 15.4668 5.97056L13.965 10.8514C13.9558 10.8813 13.9468 10.9108 13.9378 10.94C13.7826 11.4456 13.6606 11.8432 13.4339 12.1813C13.2345 12.4788 12.9788 12.7345 12.6813 12.9339C12.3432 13.1606 11.9456 13.2826 11.44 13.4378C11.4108 13.4468 11.3813 13.4558 11.3514 13.465L6.47056 14.9668C6.20504 15.0485 5.91611 14.9768 5.71967 14.7803C5.52323 14.5839 5.45147 14.295 5.53317 14.0294L7.03495 9.14864C7.04416 9.11872 7.05323 9.08917 7.06218 9.05997C7.21735 8.55438 7.33935 8.15685 7.56606 7.81872C7.76554 7.52121 8.02121 7.26554 8.31872 7.06606C8.65685 6.83935 9.05438 6.71735 9.55997 6.56218C9.58917 6.55323 9.61872 6.54416 9.64864 6.53495L14.5294 5.03317C14.795 4.95147 15.0839 5.02323 15.2803 5.21967ZM13.6165 6.88346L10.0898 7.96862C9.45336 8.16444 9.28518 8.22403 9.15406 8.31194C9.01883 8.40261 8.90261 8.51883 8.81194 8.65406C8.72403 8.78518 8.66444 8.95336 8.46862 9.58977L7.38346 13.1165L10.9102 12.0314C11.5466 11.8356 11.7148 11.776 11.8459 11.6881C11.9812 11.5974 12.0974 11.4812 12.1881 11.3459C12.276 11.2148 12.3356 11.0466 12.5314 10.4102L13.6165 6.88346Z"
        fill="white" />
</svg>