<svg width="22" height="22" viewBox="0 0 22 22" fill="none" xmlns="http://www.w3.org/2000/svg">
<path d="M10.9992 21.7953C16.9639 21.7953 21.7992 16.96 21.7992 10.9953C21.7992 5.03064 16.9639 0.195312 10.9992 0.195312C5.03454 0.195312 0.199219 5.03064 0.199219 10.9953C0.199219 16.96 5.03454 21.7953 10.9992 21.7953Z" fill="#1977F3"/>
<path d="M15.2026 14.1171L15.681 10.9945H12.686V8.96843C12.686 8.11488 13.1036 7.28107 14.4462 7.28107H15.8086V4.62322C15.8086 4.62322 14.5723 4.41211 13.3907 4.41211C10.9242 4.41211 9.31126 5.90658 9.31126 8.61456V10.9945H6.56836V14.1171H9.31126V21.6639C9.86106 21.7504 10.4245 21.7945 10.9986 21.7945C11.5727 21.7945 12.1362 21.7489 12.686 21.6639V14.1171H15.2026Z" fill="white"/>
</svg>
