<svg width="24" height="24" viewBox="0 0 24 24" fill="none" xmlns="http://www.w3.org/2000/svg">
<path d="M22.341 12.2422C22.341 11.5312 22.278 10.8562 22.17 10.1992H12V14.2582H17.823C17.562 15.5902 16.797 16.7152 15.663 17.4802V20.1802H19.137C21.171 18.2992 22.341 15.5272 22.341 12.2422Z" fill="#4285F4"/>
<path d="M11.9984 22.7995C14.9144 22.7995 17.3534 21.8275 19.1354 20.1805L15.6614 17.4805C14.6894 18.1285 13.4564 18.5245 11.9984 18.5245C9.18138 18.5245 6.79638 16.6255 5.94138 14.0605H2.35938V16.8415C4.13238 20.3695 7.77738 22.7995 11.9984 22.7995Z" fill="#34A853"/>
<path d="M5.94222 14.0592C5.71722 13.4112 5.60022 12.7182 5.60022 11.9982C5.60022 11.2782 5.72622 10.5853 5.94222 9.93725V7.15625H2.36022C1.62222 8.61425 1.19922 10.2522 1.19922 11.9982C1.19922 13.7442 1.62222 15.3822 2.36022 16.8402L5.94222 14.0592Z" fill="#FBBC05"/>
<path d="M11.9984 5.47422C13.5914 5.47422 15.0134 6.02322 16.1384 7.09422L19.2164 4.01622C17.3534 2.27022 14.9144 1.19922 11.9984 1.19922C7.77738 1.19922 4.13238 3.62922 2.35938 7.15722L5.94138 9.93822C6.79638 7.37322 9.18138 5.47422 11.9984 5.47422Z" fill="#EA4335"/>
</svg>
