<svg width="20" height="20" viewBox="0 0 20 20" fill="none" xmlns="http://www.w3.org/2000/svg">
<path fill-rule="evenodd" clip-rule="evenodd" d="M9.49129 1.1989C9.77859 0.933701 10.2214 0.933701 10.5087 1.1989L13.7587 4.1989C14.0631 4.47985 14.0821 4.95434 13.8011 5.25871C13.5202 5.56308 13.0457 5.58206 12.7413 5.3011L10.75 3.46299V12.25C10.75 12.6642 10.4142 13 10 13C9.58579 13 9.25 12.6642 9.25 12.25V3.46299L7.25871 5.3011C6.95434 5.58206 6.47985 5.56308 6.1989 5.25871C5.91794 4.95434 5.93692 4.47985 6.24129 4.1989L9.49129 1.1989ZM1.75 13C2.16421 13 2.5 13.3358 2.5 13.75V16.25C2.5 16.9404 3.05964 17.5 3.75 17.5H16.25C16.9404 17.5 17.5 16.9404 17.5 16.25V13.75C17.5 13.3358 17.8358 13 18.25 13C18.6642 13 19 13.3358 19 13.75V16.25C19 17.7688 17.7688 19 16.25 19H3.75C2.23122 19 1 17.7688 1 16.25V13.75C1 13.3358 1.33579 13 1.75 13Z" fill="white"/>
</svg>
