<svg width="22" height="22" viewBox="0 0 22 22" fill="none" xmlns="http://www.w3.org/2000/svg">
<path d="M11.0027 0.195312C6.49384 0.195312 5.17516 0.199965 4.91884 0.221235C3.99353 0.29817 3.41775 0.4439 2.79047 0.756295C2.30706 0.996408 1.9258 1.27474 1.54954 1.6649C0.864281 2.37643 0.448975 3.2518 0.298634 4.29235C0.22554 4.7975 0.204276 4.90052 0.199957 7.48078C0.198296 8.34086 0.199957 9.4728 0.199957 10.9911C0.199957 15.4975 0.204941 16.8153 0.226537 17.0712C0.301292 17.9718 0.442496 18.5384 0.741517 19.1582C1.31298 20.3447 2.4044 21.2353 3.69019 21.5677C4.1354 21.6823 4.62712 21.7455 5.25839 21.7754C5.52585 21.787 8.25192 21.7953 10.9797 21.7953C13.7074 21.7953 16.4351 21.792 16.6959 21.7787C17.4269 21.7443 17.8513 21.6873 18.3206 21.566C19.6147 21.232 20.6862 20.3546 21.2693 19.1516C21.5625 18.5467 21.7112 17.9585 21.7785 17.1049C21.7931 16.9188 21.7992 13.9515 21.7992 10.9883C21.7992 8.02448 21.7926 5.0627 21.778 4.87659C21.7098 4.0092 21.5612 3.42595 21.2585 2.80947C21.0101 2.30481 20.7344 1.92795 20.334 1.5426C19.6195 0.859984 18.7457 0.444564 17.7045 0.294349C17.1999 0.221401 17.0994 0.199799 14.5179 0.195312H11.0027Z" fill="url(#paint0_radial_517_211)"/>
<path d="M11.0027 0.195312C6.49384 0.195312 5.17516 0.199965 4.91884 0.221235C3.99353 0.29817 3.41775 0.4439 2.79047 0.756295C2.30706 0.996408 1.9258 1.27474 1.54954 1.6649C0.864281 2.37643 0.448975 3.2518 0.298634 4.29235C0.22554 4.7975 0.204276 4.90052 0.199957 7.48078C0.198296 8.34086 0.199957 9.4728 0.199957 10.9911C0.199957 15.4975 0.204941 16.8153 0.226537 17.0712C0.301292 17.9718 0.442496 18.5384 0.741517 19.1582C1.31298 20.3447 2.4044 21.2353 3.69019 21.5677C4.1354 21.6823 4.62712 21.7455 5.25839 21.7754C5.52585 21.787 8.25192 21.7953 10.9797 21.7953C13.7074 21.7953 16.4351 21.792 16.6959 21.7787C17.4269 21.7443 17.8513 21.6873 18.3206 21.566C19.6147 21.232 20.6862 20.3546 21.2693 19.1516C21.5625 18.5467 21.7112 17.9585 21.7785 17.1049C21.7931 16.9188 21.7992 13.9515 21.7992 10.9883C21.7992 8.02448 21.7926 5.0627 21.778 4.87659C21.7098 4.0092 21.5612 3.42595 21.2585 2.80947C21.0101 2.30481 20.7344 1.92795 20.334 1.5426C19.6195 0.859984 18.7457 0.444564 17.7045 0.294349C17.1999 0.221401 17.0994 0.199799 14.5179 0.195312H11.0027Z" fill="url(#paint1_radial_517_211)"/>
<path d="M10.998 3.01953C8.83241 3.01953 8.56064 3.029 7.71009 3.06772C6.8612 3.1066 6.28177 3.24103 5.77476 3.43827C5.25031 3.642 4.80543 3.91451 4.36222 4.35801C3.91867 4.80135 3.64623 5.24635 3.4419 5.77077C3.24421 6.27808 3.10966 6.85784 3.07145 7.70663C3.0334 8.55741 3.02344 8.82942 3.02344 10.9956C3.02344 13.1618 3.03307 13.4328 3.07161 14.2836C3.11065 15.1327 3.24505 15.7123 3.44207 16.2194C3.6459 16.744 3.91834 17.189 4.36172 17.6323C4.80477 18.076 5.24965 18.3492 5.77376 18.5529C6.2811 18.7501 6.8607 18.8846 7.70942 18.9235C8.55997 18.9622 8.83158 18.9716 10.997 18.9716C13.1627 18.9716 13.4337 18.9622 14.2842 18.9235C15.1331 18.8846 15.7132 18.7501 16.2205 18.5529C16.7448 18.3492 17.189 18.076 17.6321 17.6323C18.0756 17.189 18.3481 16.744 18.5524 16.2196C18.7484 15.7123 18.883 15.1325 18.9229 14.2837C18.9611 13.4329 18.971 13.1618 18.971 10.9956C18.971 8.82942 18.9611 8.55757 18.9229 7.70679C18.883 6.85768 18.7484 6.27808 18.5524 5.77094C18.3481 5.24635 18.0756 4.80135 17.6321 4.35801C17.1885 3.91435 16.745 3.64183 16.2201 3.43827C15.7117 3.24103 15.1319 3.1066 14.2831 3.06772C13.4325 3.029 13.1617 3.01953 10.9955 3.01953H10.998ZM10.2827 4.45688C10.495 4.45655 10.7319 4.45688 10.998 4.45688C13.127 4.45688 13.3794 4.46453 14.2201 4.50275C14.9976 4.53831 15.4195 4.66825 15.7006 4.77742C16.0727 4.92199 16.338 5.0948 16.6169 5.37396C16.896 5.65313 17.0688 5.91899 17.2136 6.29121C17.3228 6.57203 17.4528 6.9941 17.4882 7.77177C17.5264 8.61258 17.5347 8.86515 17.5347 10.9938C17.5347 13.1224 17.5264 13.3749 17.4882 14.2158C17.4527 14.9934 17.3228 15.4155 17.2136 15.6963C17.0691 16.0685 16.896 16.3336 16.6169 16.6126C16.3378 16.8917 16.0729 17.0645 15.7006 17.2091C15.4198 17.3188 14.9976 17.4484 14.2201 17.4839C13.3795 17.5222 13.127 17.5305 10.998 17.5305C8.86879 17.5305 8.61645 17.5222 7.77587 17.4839C6.99842 17.4481 6.57647 17.3181 6.29522 17.2089C5.92311 17.0644 5.65731 16.8916 5.37823 16.6124C5.09914 16.3332 4.92637 16.068 4.78151 15.6956C4.67237 15.4148 4.5423 14.9928 4.50691 14.2151C4.4687 13.3743 4.46106 13.1217 4.46106 10.9918C4.46106 8.86183 4.4687 8.61058 4.50691 7.76977C4.54246 6.99211 4.67237 6.57004 4.78151 6.28888C4.92604 5.91667 5.09914 5.6508 5.37823 5.37164C5.65731 5.09248 5.92311 4.91966 6.29522 4.77476C6.5763 4.66509 6.99842 4.53548 7.77587 4.49975C8.51146 4.46652 8.79653 4.45655 10.2827 4.45489V4.45688ZM15.2544 5.78124C14.7261 5.78124 14.2975 6.20946 14.2975 6.73804C14.2975 7.26645 14.7261 7.69516 15.2544 7.69516C15.7826 7.69516 16.2112 7.26645 16.2112 6.73804C16.2112 6.20962 15.7826 5.78091 15.2544 5.78091V5.78124ZM10.998 6.89955C8.73656 6.89955 6.90306 8.73355 6.90306 10.9956C6.90306 13.2576 8.73656 15.0908 10.998 15.0908C13.2594 15.0908 15.0922 13.2576 15.0922 10.9956C15.0922 8.73355 13.2592 6.89955 10.9978 6.89955H10.998ZM10.998 8.3369C12.4658 8.3369 13.6559 9.52716 13.6559 10.9956C13.6559 12.4638 12.4658 13.6543 10.998 13.6543C9.52996 13.6543 8.34003 12.4638 8.34003 10.9956C8.34003 9.52716 9.52996 8.3369 10.998 8.3369Z" fill="white"/>
<defs>
<radialGradient id="paint0_radial_517_211" cx="0" cy="0" r="1" gradientUnits="userSpaceOnUse" gradientTransform="translate(5.93675 23.459) rotate(-90) scale(21.4072 19.9104)">
<stop stop-color="#FFDD55"/>
<stop offset="0.1" stop-color="#FFDD55"/>
<stop offset="0.5" stop-color="#FF543E"/>
<stop offset="1" stop-color="#C837AB"/>
</radialGradient>
<radialGradient id="paint1_radial_517_211" cx="0" cy="0" r="1" gradientUnits="userSpaceOnUse" gradientTransform="translate(-3.4189 1.75134) rotate(78.6806) scale(9.5691 39.4443)">
<stop stop-color="#3771C8"/>
<stop offset="0.128" stop-color="#3771C8"/>
<stop offset="1" stop-color="#6600FF" stop-opacity="0"/>
</radialGradient>
</defs>
</svg>
