<svg width="20" height="20" viewBox="0 0 20 20" fill="none" xmlns="http://www.w3.org/2000/svg">
<path fill-rule="evenodd" clip-rule="evenodd" d="M1 4.74754C1.00028 4.33333 1.33629 3.99777 1.7505 3.99805L4.2505 3.99973C4.66472 4.00001 5.00028 4.33602 5 4.75023C4.99972 5.16444 4.66371 5.50001 4.2495 5.49973L1.7495 5.49805C1.33528 5.49777 0.999722 5.16176 1 4.74754ZM8 4.74767C8.00021 4.33346 8.33616 3.99784 8.75037 3.99805L18.2504 4.00279C18.6646 4.003 19.0002 4.33896 19 4.75317C18.9998 5.16738 18.6638 5.503 18.2496 5.50279L8.74963 5.49805C8.33541 5.49784 7.99979 5.16189 8 4.74767ZM1 9.99974C1.00028 9.58553 1.33629 9.24997 1.7505 9.25024L4.2505 9.25192C4.66472 9.2522 5.00028 9.58822 5 10.0024C4.99972 10.4166 4.66371 10.7522 4.2495 10.7519L1.7495 10.7502C1.33528 10.75 0.999722 10.414 1 9.99974ZM8 9.99987C8.00021 9.58566 8.33616 9.25004 8.75037 9.25024L18.2504 9.25499C18.6646 9.2552 19.0002 9.59115 19 10.0054C18.9998 10.4196 18.6638 10.7552 18.2496 10.755L8.74963 10.7502C8.33541 10.75 7.99979 10.4141 8 9.99987ZM1 15.2502C1 14.836 1.33579 14.5002 1.75 14.5002H4.25C4.66421 14.5002 5 14.836 5 15.2502C5 15.6645 4.66421 16.0002 4.25 16.0002H1.75C1.33579 16.0002 1 15.6645 1 15.2502ZM8 15.2502C8 14.836 8.33579 14.5002 8.75 14.5002H18.25C18.6642 14.5002 19 14.836 19 15.2502C19 15.6645 18.6642 16.0002 18.25 16.0002H8.75C8.33579 16.0002 8 15.6645 8 15.2502Z" fill="white"/>
</svg>
