<svg width="21" height="20" viewBox="0 0 21 20" fill="none" xmlns="http://www.w3.org/2000/svg">
<path fill-rule="evenodd" clip-rule="evenodd" d="M3.06424 5.35337L10.5 9.63457L17.9358 5.35337C17.77 4.85744 17.3017 4.5 16.75 4.5H4.25C3.69828 4.5 3.23005 4.85744 3.06424 5.35337ZM18 7.04725L10.8742 11.15C10.6426 11.2833 10.3574 11.2833 10.1258 11.15L3 7.04725V14.25C3 14.9404 3.55964 15.5 4.25 15.5H16.75C17.4404 15.5 18 14.9404 18 14.25V7.04725ZM1.5 5.75C1.5 4.23122 2.73122 3 4.25 3H16.75C18.2688 3 19.5 4.23122 19.5 5.75V14.25C19.5 15.7688 18.2688 17 16.75 17H4.25C2.73122 17 1.5 15.7688 1.5 14.25V5.75Z" fill="white"/>
</svg>
