<svg width="20" height="20" viewBox="0 0 20 20" fill="none" xmlns="http://www.w3.org/2000/svg">
<path fill-rule="evenodd" clip-rule="evenodd" d="M12.8277 3.67476C11.2658 2.10841 8.73429 2.10841 7.17236 3.67476C5.60927 5.24229 5.60927 7.78462 7.17236 9.35215L10 12.1878L12.8277 9.35215C14.3908 7.78462 14.3908 5.24229 12.8277 3.67476ZM10 13.25L9.46893 13.7796L6.1102 10.4113C3.96332 8.25834 3.96332 4.76857 6.1102 2.6156C8.25826 0.461465 11.7418 0.461465 13.8899 2.6156C16.0368 4.76857 16.0368 8.25834 13.8899 10.4113L10.5316 13.7791L10 13.25ZM10 13.25L10.5316 13.7791C10.3908 13.9203 10.1993 14 10 14C9.80076 14 9.60965 13.9207 9.46893 13.7796L10 13.25ZM8.50004 6.5C8.50004 5.67157 9.17161 5 10 5C10.8285 5 11.5 5.67157 11.5 6.5C11.5 7.32843 10.8285 8 10 8C9.17161 8 8.50004 7.32843 8.50004 6.5ZM2.53714 11.0095C2.94609 11.0753 3.22427 11.4602 3.15848 11.8691L2.70582 14.6826C2.60144 15.3313 2.53182 15.7685 2.50827 16.1062C2.48528 16.436 2.51412 16.5885 2.55255 16.6849C2.65869 16.951 2.86157 17.1812 3.13457 17.3297C3.24224 17.3882 3.41069 17.4408 3.76264 17.4699C4.12068 17.4994 4.58832 17.5 5.27298 17.5H14.7271C15.4118 17.5 15.8794 17.4994 16.2374 17.4699C16.5894 17.4408 16.7578 17.3882 16.8655 17.3297C17.1385 17.1812 17.3414 16.951 17.4475 16.6849C17.486 16.5885 17.5148 16.436 17.4918 16.1062C17.4683 15.7685 17.3986 15.3313 17.2943 14.6826L16.8416 11.8691C16.7758 11.4602 17.054 11.0753 17.4629 11.0095C17.8719 10.9437 18.2568 11.2219 18.3226 11.6309L18.7807 14.4782C18.8782 15.0844 18.9594 15.5887 18.9882 16.0019C19.0181 16.4308 18.9995 16.8428 18.8408 17.2406C18.6009 17.8419 18.153 18.337 17.582 18.6475C17.2089 18.8504 16.801 18.9285 16.3608 18.9648C15.9337 19 15.4039 19 14.7591 19H5.24098C4.59622 19 4.06638 19 3.63931 18.9648C3.19909 18.9285 2.79117 18.8504 2.41805 18.6475C1.84705 18.337 1.39916 17.8419 1.1593 17.2406C1.00062 16.8428 0.981994 16.4308 1.0119 16.0019C1.04072 15.5887 1.12186 15.0844 1.21941 14.4782L1.67752 11.6309C1.74332 11.2219 2.12818 10.9437 2.53714 11.0095Z" fill="white"/>
</svg>
