<svg width="21" height="20" viewBox="0 0 21 20" fill="none" xmlns="http://www.w3.org/2000/svg">
    <path fill-rule="evenodd" clip-rule="evenodd"
        d="M10.5 2.5C9.11929 2.5 8 3.61929 8 5C8 6.38071 9.11929 7.5 10.5 7.5C11.8807 7.5 13 6.38071 13 5C13 3.61929 11.8807 2.5 10.5 2.5ZM6.5 5C6.5 2.79086 8.29086 1 10.5 1C12.7091 1 14.5 2.79086 14.5 5C14.5 7.20914 12.7091 9 10.5 9C8.29086 9 6.5 7.20914 6.5 5ZM3.5 16.625C3.5 13.5184 6.0184 11 9.125 11H11.875C14.9816 11 17.5 13.5184 17.5 16.625C17.5 17.9367 16.4367 19 15.125 19H5.875C4.56332 19 3.5 17.9367 3.5 16.625ZM9.125 12.5C6.84683 12.5 5 14.3468 5 16.625C5 17.1082 5.39175 17.5 5.875 17.5H15.125C15.6082 17.5 16 17.1082 16 16.625C16 14.3468 14.1532 12.5 11.875 12.5H9.125Z"
        fill="white" />
</svg>