<svg width="20" height="20" viewBox="0 0 20 20" fill="none" xmlns="http://www.w3.org/2000/svg">
    <path fill-rule="evenodd" clip-rule="evenodd"
        d="M3.75 2.5C3.05964 2.5 2.5 3.05964 2.5 3.75V6.25C2.5 6.66421 2.16421 7 1.75 7C1.33579 7 1 6.66421 1 6.25V3.75C1 2.23122 2.23122 1 3.75 1H6.25C6.66421 1 7 1.33579 7 1.75C7 2.16421 6.66421 2.5 6.25 2.5H3.75ZM13 1.75C13 1.33579 13.3358 1 13.75 1H16.25C17.7688 1 19 2.23122 19 3.75V6.25C19 6.66421 18.6642 7 18.25 7C17.8358 7 17.5 6.66421 17.5 6.25V3.75C17.5 3.05964 16.9404 2.5 16.25 2.5H13.75C13.3358 2.5 13 2.16421 13 1.75ZM1.75 13C2.16421 13 2.5 13.3358 2.5 13.75V16.25C2.5 16.9404 3.05964 17.5 3.75 17.5H6.25C6.66421 17.5 7 17.8358 7 18.25C7 18.6642 6.66421 19 6.25 19H3.75C2.23122 19 1 17.7688 1 16.25V13.75C1 13.3358 1.33579 13 1.75 13ZM18.25 13C18.6642 13 19 13.3358 19 13.75V16.25C19 17.7688 17.7688 19 16.25 19H13.75C13.3358 19 13 18.6642 13 18.25C13 17.8358 13.3358 17.5 13.75 17.5H16.25C16.9404 17.5 17.5 16.9404 17.5 16.25V13.75C17.5 13.3358 17.8358 13 18.25 13Z"
        fill="#C36EFF" />
</svg>