<svg width="390" height="844" viewBox="0 0 390 844" fill="none" xmlns="http://www.w3.org/2000/svg">
<rect width="390" height="844" fill="#F5F5F5"/>
<g clip-path="url(#clip0_0_1)">
<rect width="390" height="844" fill="#191919"/>
<path d="M0 682.461L34.3746 667.394C79.8351 647.468 131.734 648.406 176.445 669.961L232.014 696.751C255.041 707.852 280.276 713.617 305.839 713.617H390V853H0V682.461Z" fill="url(#paint0_linear_0_1)" fill-opacity="0.2"/>
<path d="M-12 409L34.777 405.855C80.9212 402.753 126.338 418.585 160.554 449.7L202.081 487.464C242.808 524.5 298.947 539.523 352.727 527.778L390 519.637V853H0L-12 409Z" fill="url(#paint1_linear_0_1)" fill-opacity="0.2"/>
<path d="M-23 655.602C31.2697 685.886 97.7794 683.955 150.2 650.573L249.078 587.607C276.365 570.23 308.043 561 340.393 561H414L390.473 853H0.0263462L-23 655.602Z" fill="url(#paint2_linear_0_1)" fill-opacity="0.1"/>
</g>
<defs>
<linearGradient id="paint0_linear_0_1" x1="417.5" y1="586.5" x2="-189.5" y2="913.5" gradientUnits="userSpaceOnUse">
<stop offset="0.0112061" stop-color="#6001AA"/>
<stop offset="1" stop-color="#F5F5F5" stop-opacity="0"/>
</linearGradient>
<linearGradient id="paint1_linear_0_1" x1="-630" y1="611.5" x2="361" y2="889" gradientUnits="userSpaceOnUse">
<stop stop-color="#6001AA"/>
<stop offset="1" stop-color="#F5F5F5" stop-opacity="0"/>
</linearGradient>
<linearGradient id="paint2_linear_0_1" x1="195.25" y1="529.714" x2="195.25" y2="853" gradientUnits="userSpaceOnUse">
<stop stop-color="#6001AA"/>
<stop offset="1" stop-color="#F5F5F5" stop-opacity="0"/>
</linearGradient>
<clipPath id="clip0_0_1">
<rect width="390" height="844" fill="white"/>
</clipPath>
</defs>
</svg>
