<svg width="24" height="24" viewBox="0 0 24 24" fill="none" xmlns="http://www.w3.org/2000/svg">
<path d="M20.5886 7.96898C20.6018 8.1594 20.6018 8.34982 20.6018 8.542C20.6018 14.3976 16.144 21.151 7.99279 21.151V21.1475C5.58489 21.151 3.22701 20.4613 1.19995 19.1608C1.55008 19.2029 1.90196 19.224 2.25472 19.2248C4.25019 19.2266 6.18862 18.5571 7.75849 17.3242C5.86218 17.2882 4.19929 16.0518 3.61838 14.2467C4.28266 14.3748 4.96712 14.3485 5.61911 14.1704C3.55169 13.7527 2.0643 11.9362 2.0643 9.82668V9.77052C2.68032 10.1136 3.37004 10.304 4.07556 10.3251C2.12836 9.02375 1.52814 6.43333 2.70401 4.40803C4.95395 7.17659 8.27359 8.85966 11.8372 9.03779C11.48 7.49863 11.9679 5.88576 13.1192 4.80379C14.9041 3.12598 17.7113 3.21198 19.3891 4.99596C20.3815 4.80028 21.3327 4.43611 22.2032 3.92013C21.8724 4.94595 21.1801 5.81732 20.2552 6.37103C21.1336 6.26748 21.9918 6.03231 22.8 5.6734C22.205 6.56496 21.4556 7.34156 20.5886 7.96898Z" fill="white"/>
</svg>
