<svg width="21" height="20" viewBox="0 0 21 20" fill="none" xmlns="http://www.w3.org/2000/svg">
<path fill-rule="evenodd" clip-rule="evenodd" d="M1.5 4.74754C1.50028 4.33333 1.83629 3.99777 2.2505 3.99805L4.7505 3.99973C5.16472 4.00001 5.50028 4.33602 5.5 4.75023C5.49972 5.16444 5.16371 5.50001 4.7495 5.49973L2.2495 5.49805C1.83528 5.49777 1.49972 5.16176 1.5 4.74754ZM8.5 4.74767C8.50021 4.33346 8.83616 3.99784 9.25037 3.99805L18.7504 4.00279C19.1646 4.003 19.5002 4.33896 19.5 4.75317C19.4998 5.16738 19.1638 5.503 18.7496 5.50279L9.24963 5.49805C8.83541 5.49784 8.49979 5.16189 8.5 4.74767ZM1.5 9.99974C1.50028 9.58553 1.83629 9.24997 2.2505 9.25024L4.7505 9.25192C5.16472 9.2522 5.50028 9.58822 5.5 10.0024C5.49972 10.4166 5.16371 10.7522 4.7495 10.7519L2.2495 10.7502C1.83528 10.75 1.49972 10.414 1.5 9.99974ZM8.5 9.99987C8.50021 9.58566 8.83616 9.25004 9.25037 9.25024L18.7504 9.25499C19.1646 9.2552 19.5002 9.59115 19.5 10.0054C19.4998 10.4196 19.1638 10.7552 18.7496 10.755L9.24963 10.7502C8.83541 10.75 8.49979 10.4141 8.5 9.99987ZM1.5 15.2502C1.5 14.836 1.83579 14.5002 2.25 14.5002H4.75C5.16421 14.5002 5.5 14.836 5.5 15.2502C5.5 15.6645 5.16421 16.0002 4.75 16.0002H2.25C1.83579 16.0002 1.5 15.6645 1.5 15.2502ZM8.5 15.2502C8.5 14.836 8.83579 14.5002 9.25 14.5002H18.75C19.1642 14.5002 19.5 14.836 19.5 15.2502C19.5 15.6645 19.1642 16.0002 18.75 16.0002H9.25C8.83579 16.0002 8.5 15.6645 8.5 15.2502Z" fill="white"/>
</svg>
