<svg width="24" height="24" viewBox="0 0 24 24" fill="none" xmlns="http://www.w3.org/2000/svg">
<path d="M12.9969 0.627833C12.5527 -0.209276 11.4473 -0.209279 11.0031 0.627833L7.87494 6.52321C7.65552 6.93674 7.27626 7.21893 6.84397 7.29033L0.981594 8.25862C-0.00303382 8.42125 -0.348415 9.78075 0.418402 10.4755L4.78563 14.4322C5.18989 14.7985 5.37997 15.3762 5.28177 15.9402L4.13937 22.5009C3.95878 23.538 4.95436 24.3438 5.80859 23.8519L11.3288 20.6733C11.7489 20.4314 12.2511 20.4314 12.6712 20.6733L18.1914 23.8519C19.0456 24.3438 20.0412 23.538 19.8606 22.5009L18.7182 15.9402C18.62 15.3762 18.8101 14.7985 19.2144 14.4322L23.5816 10.4755C24.3484 9.78076 24.003 8.42125 23.0184 8.25862L17.156 7.29033C16.7237 7.21893 16.3445 6.93674 16.1251 6.52321L12.9969 0.627833Z" fill="#F9D450" fill-opacity="0.89"/>
</svg>
